<svg xmlns="http://www.w3.org/2000/svg" xmlns:xlink="http://www.w3.org/1999/xlink" width="1600" zoomAndPan="magnify" viewBox="0 0 1200 290.999983" height="388" preserveAspectRatio="xMidYMid meet" version="1.0"><defs><g/><clipPath id="cad90f9582"><path d="M 150.433594 66 L 453 66 L 453 215 L 150.433594 215 Z M 150.433594 66 " clip-rule="nonzero"/></clipPath><clipPath id="ffbea950b5"><path d="M 272 40.140625 L 482.683594 40.140625 L 482.683594 250.890625 L 272 250.890625 Z M 272 40.140625 " clip-rule="nonzero"/></clipPath></defs><g clip-path="url(#cad90f9582)"><path fill="#edb641" d="M 277.898438 196.644531 C 291.328125 190.511719 302.996094 183.753906 312.550781 177.5 C 330.824219 165.539062 354.183594 143.292969 355.46875 141.515625 L 346.90625 135.796875 L 339.492188 130.839844 L 362.960938 129.921875 L 370.503906 129.628906 L 372.554688 122.363281 L 378.933594 99.757812 L 387.058594 121.796875 L 389.671875 128.878906 L 397.210938 128.582031 L 420.683594 127.664062 L 402.234375 142.203125 L 396.304688 146.875 L 398.917969 153.953125 L 407.042969 175.992188 L 387.515625 162.941406 L 381.242188 158.746094 L 375.3125 163.417969 L 356.867188 177.953125 L 360.035156 166.71875 L 363.242188 155.351562 L 363.640625 153.941406 C 341.183594 170.75 309.765625 186.949219 290.980469 192.9375 C 286.671875 194.3125 282.3125 195.542969 277.898438 196.644531 Z M 233.730469 213.855469 C 267.019531 212.554688 306.675781 204.09375 345.703125 179.253906 L 338.1875 205.898438 L 381.742188 171.574219 L 427.847656 202.394531 L 408.664062 150.359375 L 452.21875 116.035156 L 396.804688 118.203125 L 377.621094 66.171875 L 362.554688 119.542969 L 307.140625 121.710938 L 339.222656 143.152344 C 318.109375 162.355469 265.144531 203.308594 194.976562 206.058594 C 180.792969 206.613281 165.898438 205.601562 150.433594 202.535156 C 150.433594 202.535156 185.351562 215.75 233.730469 213.855469 " fill-opacity="1" fill-rule="nonzero"/></g><g clip-path="url(#ffbea950b5)"><path fill="#edb641" d="M 377.753906 40.335938 C 319.671875 40.335938 272.589844 87.417969 272.589844 145.5 C 272.589844 156.496094 274.28125 167.097656 277.414062 177.066406 C 281.988281 174.785156 286.355469 172.425781 290.515625 170.03125 C 288.324219 162.230469 287.152344 154 287.152344 145.5 C 287.152344 95.460938 327.714844 54.898438 377.753906 54.898438 C 427.792969 54.898438 468.355469 95.460938 468.355469 145.5 C 468.355469 195.535156 427.792969 236.101562 377.753906 236.101562 C 350.617188 236.101562 326.269531 224.167969 309.664062 205.265625 C 304.835938 207.144531 299.949219 208.855469 295 210.398438 C 314.253906 234.914062 344.164062 250.660156 377.753906 250.660156 C 435.835938 250.660156 482.917969 203.578125 482.917969 145.5 C 482.917969 87.417969 435.835938 40.335938 377.753906 40.335938 " fill-opacity="1" fill-rule="nonzero"/></g><path fill="#edb641" d="M 224.34375 131.453125 L 230.148438 149.316406 L 248.929688 149.316406 L 233.730469 160.355469 L 239.535156 178.21875 L 224.34375 167.175781 L 209.148438 178.21875 L 214.953125 160.355469 L 199.757812 149.316406 L 218.539062 149.316406 L 224.34375 131.453125 " fill-opacity="1" fill-rule="nonzero"/><path fill="#edb641" d="M 251.367188 72.578125 L 256.375 88 L 272.589844 88 L 259.476562 97.527344 L 264.484375 112.945312 L 251.367188 103.417969 L 238.25 112.945312 L 243.261719 97.527344 L 230.148438 88 L 246.359375 88 L 251.367188 72.578125 " fill-opacity="1" fill-rule="nonzero"/><path fill="#edb641" d="M 168.59375 166.4375 L 171.519531 175.4375 L 180.976562 175.4375 L 173.324219 180.996094 L 176.25 189.992188 L 168.59375 184.433594 L 160.941406 189.992188 L 163.863281 180.996094 L 156.210938 175.4375 L 165.671875 175.4375 L 168.59375 166.4375 " fill-opacity="1" fill-rule="nonzero"/><g fill="#202235" fill-opacity="1"><g transform="translate(596.976105, 154.084911)"><g><path d="M 5.90625 0 L 5.90625 -67.984375 L 20.28125 -67.984375 L 20.28125 -11.84375 L 49.4375 -11.84375 L 49.4375 0 Z M 5.90625 0 "/></g></g></g><g fill="#202235" fill-opacity="1"><g transform="translate(656.843576, 154.084911)"><g><path d="M 20.28125 -67.984375 L 20.28125 0 L 5.90625 0 L 5.90625 -67.984375 Z M 20.28125 -67.984375 "/></g></g></g><g fill="#202235" fill-opacity="1"><g transform="translate(689.891955, 154.084911)"><g><path d="M 3.3125 -56.140625 L 3.3125 -67.984375 L 59.15625 -67.984375 L 59.15625 -56.140625 L 38.34375 -56.140625 L 38.34375 0 L 24.140625 0 L 24.140625 -56.140625 Z M 3.3125 -56.140625 "/></g></g></g><g fill="#202235" fill-opacity="1"><g transform="translate(759.185961, 154.084911)"><g><path d="M 5.90625 0 L 5.90625 -67.984375 L 51.71875 -67.984375 L 51.71875 -56.140625 L 20.28125 -56.140625 L 20.28125 -39.9375 L 49.359375 -39.9375 L 49.359375 -28.078125 L 20.28125 -28.078125 L 20.28125 -11.84375 L 51.859375 -11.84375 L 51.859375 0 Z M 5.90625 0 "/></g></g></g><g fill="#202235" fill-opacity="1"><g transform="translate(823.26884, 154.084911)"><g><path d="M 42.796875 -48.4375 C 42.523438 -51.113281 41.375 -53.191406 39.34375 -54.671875 C 37.320312 -56.160156 34.597656 -56.90625 31.171875 -56.90625 C 27.648438 -56.90625 24.945312 -56.179688 23.0625 -54.734375 C 21.1875 -53.296875 20.25 -51.484375 20.25 -49.296875 C 20.207031 -46.859375 21.253906 -45.015625 23.390625 -43.765625 C 25.523438 -42.515625 28.0625 -41.546875 31 -40.859375 L 37.109375 -39.40625 C 41.054688 -38.519531 44.5625 -37.234375 47.625 -35.546875 C 50.6875 -33.867188 53.097656 -31.707031 54.859375 -29.0625 C 56.617188 -26.414062 57.5 -23.203125 57.5 -19.421875 C 57.476562 -13.203125 55.148438 -8.25 50.515625 -4.5625 C 45.878906 -0.875 39.410156 0.96875 31.109375 0.96875 C 22.847656 0.96875 16.257812 -0.910156 11.34375 -4.671875 C 6.4375 -8.441406 3.894531 -14 3.71875 -21.34375 L 17.625 -21.34375 C 17.875 -17.9375 19.21875 -15.375 21.65625 -13.65625 C 24.101562 -11.945312 27.195312 -11.09375 30.9375 -11.09375 C 34.59375 -11.09375 37.507812 -11.863281 39.6875 -13.40625 C 41.863281 -14.957031 42.960938 -16.972656 42.984375 -19.453125 C 42.960938 -21.753906 41.957031 -23.523438 39.96875 -24.765625 C 37.976562 -26.003906 35.132812 -27.066406 31.4375 -27.953125 L 24.03125 -29.8125 C 18.300781 -31.1875 13.773438 -33.363281 10.453125 -36.34375 C 7.140625 -39.332031 5.492188 -43.328125 5.515625 -48.328125 C 5.492188 -52.453125 6.59375 -56.054688 8.8125 -59.140625 C 11.039062 -62.222656 14.097656 -64.625 17.984375 -66.34375 C 21.878906 -68.0625 26.304688 -68.921875 31.265625 -68.921875 C 36.316406 -68.921875 40.726562 -68.054688 44.5 -66.328125 C 48.269531 -64.597656 51.207031 -62.195312 53.3125 -59.125 C 55.414062 -56.050781 56.5 -52.488281 56.5625 -48.4375 Z M 42.796875 -48.4375 "/></g></g></g><g fill="#202235" fill-opacity="1"><g transform="translate(891.301536, 154.084911)"><g><path d="M 3.3125 -56.140625 L 3.3125 -67.984375 L 59.15625 -67.984375 L 59.15625 -56.140625 L 38.34375 -56.140625 L 38.34375 0 L 24.140625 0 L 24.140625 -56.140625 Z M 3.3125 -56.140625 "/></g></g></g><g fill="#202235" fill-opacity="1"><g transform="translate(960.59553, 154.084911)"><g><path d="M 17.625 0 L 2.21875 0 L 25.6875 -67.984375 L 44.21875 -67.984375 L 67.65625 0 L 52.25 0 L 47.203125 -15.5 L 22.671875 -15.5 Z M 26.328125 -26.71875 L 43.59375 -26.71875 L 35.21875 -52.453125 L 34.6875 -52.453125 Z M 26.328125 -26.71875 "/></g></g></g><g fill="#202235" fill-opacity="1"><g transform="translate(1037.324548, 154.084911)"><g><path d="M 5.90625 0 L 5.90625 -67.984375 L 32.734375 -67.984375 C 40.453125 -67.984375 46.441406 -65.96875 50.703125 -61.9375 C 54.960938 -57.914062 57.09375 -52.53125 57.09375 -45.78125 C 57.09375 -41.132812 56.054688 -37.160156 53.984375 -33.859375 C 51.921875 -30.566406 48.953125 -28.085938 45.078125 -26.421875 L 59.515625 0 L 43.65625 0 L 30.78125 -24.09375 L 20.28125 -24.09375 L 20.28125 0 Z M 20.28125 -35.65625 L 30.046875 -35.65625 C 38.210938 -35.65625 42.296875 -39.03125 42.296875 -45.78125 C 42.296875 -52.75 38.191406 -56.234375 29.984375 -56.234375 L 20.28125 -56.234375 Z M 20.28125 -35.65625 "/></g></g></g><g fill="#737373" fill-opacity="1"><g transform="translate(543.267595, 212.215453)"><g><path d="M 5.046875 0 L 1.09375 0 L 12.515625 -31.109375 L 16.40625 -31.109375 L 27.828125 0 L 23.875 0 L 20.75 -8.8125 L 8.171875 -8.8125 Z M 9.359375 -12.15625 L 19.5625 -12.15625 L 14.578125 -26.1875 L 14.34375 -26.1875 Z M 9.359375 -12.15625 "/></g></g></g><g fill="#737373" fill-opacity="1"><g transform="translate(582.266773, 212.215453)"><g><path d="M 13.359375 0 L 3.765625 0 L 3.765625 -31.109375 L 13.796875 -31.109375 C 16.804688 -31.109375 19.382812 -30.484375 21.53125 -29.234375 C 23.675781 -27.992188 25.320312 -26.21875 26.46875 -23.90625 C 27.613281 -21.59375 28.1875 -18.828125 28.1875 -15.609375 C 28.1875 -12.367188 27.609375 -9.582031 26.453125 -7.25 C 25.296875 -4.914062 23.613281 -3.125 21.40625 -1.875 C 19.207031 -0.625 16.523438 0 13.359375 0 Z M 7.53125 -3.34375 L 13.125 -3.34375 C 16.976562 -3.34375 19.84375 -4.4375 21.71875 -6.625 C 23.601562 -8.820312 24.546875 -11.816406 24.546875 -15.609375 C 24.546875 -19.378906 23.625 -22.347656 21.78125 -24.515625 C 19.9375 -26.679688 17.191406 -27.765625 13.546875 -27.765625 L 7.53125 -27.765625 Z M 7.53125 -3.34375 "/></g></g></g><g fill="#737373" fill-opacity="1"><g transform="translate(623.087407, 212.215453)"><g><path d="M 5.046875 -31.109375 L 14.28125 -4.921875 L 14.640625 -4.921875 L 23.875 -31.109375 L 27.828125 -31.109375 L 16.40625 0 L 12.515625 0 L 1.09375 -31.109375 Z M 5.046875 -31.109375 "/></g></g></g><g fill="#737373" fill-opacity="1"><g transform="translate(662.086585, 212.215453)"><g><path d="M 5.046875 0 L 1.09375 0 L 12.515625 -31.109375 L 16.40625 -31.109375 L 27.828125 0 L 23.875 0 L 20.75 -8.8125 L 8.171875 -8.8125 Z M 9.359375 -12.15625 L 19.5625 -12.15625 L 14.578125 -26.1875 L 14.34375 -26.1875 Z M 9.359375 -12.15625 "/></g></g></g><g fill="#737373" fill-opacity="1"><g transform="translate(701.085763, 212.215453)"><g><path d="M 28.421875 -31.109375 L 28.421875 0 L 24.78125 0 L 7.84375 -24.421875 L 7.53125 -24.421875 L 7.53125 0 L 3.765625 0 L 3.765625 -31.109375 L 7.40625 -31.109375 L 24.421875 -6.625 L 24.71875 -6.625 L 24.71875 -31.109375 Z M 28.421875 -31.109375 "/></g></g></g><g fill="#737373" fill-opacity="1"><g transform="translate(743.363525, 212.215453)"><g><path d="M 28.796875 -21.375 L 25.03125 -21.375 C 24.726562 -22.820312 24.144531 -24.035156 23.28125 -25.015625 C 22.414062 -25.992188 21.375 -26.734375 20.15625 -27.234375 C 18.945312 -27.742188 17.65625 -28 16.28125 -28 C 14.394531 -28 12.691406 -27.523438 11.171875 -26.578125 C 9.648438 -25.628906 8.441406 -24.226562 7.546875 -22.375 C 6.648438 -20.519531 6.203125 -18.242188 6.203125 -15.546875 C 6.203125 -12.859375 6.648438 -10.585938 7.546875 -8.734375 C 8.441406 -6.878906 9.648438 -5.472656 11.171875 -4.515625 C 12.691406 -3.566406 14.394531 -3.09375 16.28125 -3.09375 C 17.65625 -3.09375 18.945312 -3.34375 20.15625 -3.84375 C 21.375 -4.351562 22.414062 -5.097656 23.28125 -6.078125 C 24.144531 -7.066406 24.726562 -8.28125 25.03125 -9.71875 L 28.796875 -9.71875 C 28.410156 -7.59375 27.625 -5.769531 26.4375 -4.25 C 25.25 -2.738281 23.78125 -1.582031 22.03125 -0.78125 C 20.28125 0.0195312 18.363281 0.421875 16.28125 0.421875 C 13.625 0.421875 11.265625 -0.222656 9.203125 -1.515625 C 7.140625 -2.816406 5.515625 -4.660156 4.328125 -7.046875 C 3.140625 -9.429688 2.546875 -12.265625 2.546875 -15.546875 C 2.546875 -18.828125 3.140625 -21.660156 4.328125 -24.046875 C 5.515625 -26.441406 7.140625 -28.285156 9.203125 -29.578125 C 11.265625 -30.878906 13.625 -31.53125 16.28125 -31.53125 C 18.363281 -31.53125 20.28125 -31.125 22.03125 -30.3125 C 23.78125 -29.507812 25.25 -28.351562 26.4375 -26.84375 C 27.625 -25.332031 28.410156 -23.507812 28.796875 -21.375 Z M 28.796875 -21.375 "/></g></g></g><g fill="#737373" fill-opacity="1"><g transform="translate(784.54844, 212.215453)"><g><path d="M 3.765625 0 L 3.765625 -31.109375 L 22.53125 -31.109375 L 22.53125 -27.765625 L 7.53125 -27.765625 L 7.53125 -17.25 L 21.5625 -17.25 L 21.5625 -13.90625 L 7.53125 -13.90625 L 7.53125 -3.34375 L 22.78125 -3.34375 L 22.78125 0 Z M 3.765625 0 "/></g></g></g><g fill="#737373" fill-opacity="1"><g transform="translate(820.208328, 212.215453)"><g><path d="M 13.359375 0 L 3.765625 0 L 3.765625 -31.109375 L 13.796875 -31.109375 C 16.804688 -31.109375 19.382812 -30.484375 21.53125 -29.234375 C 23.675781 -27.992188 25.320312 -26.21875 26.46875 -23.90625 C 27.613281 -21.59375 28.1875 -18.828125 28.1875 -15.609375 C 28.1875 -12.367188 27.609375 -9.582031 26.453125 -7.25 C 25.296875 -4.914062 23.613281 -3.125 21.40625 -1.875 C 19.207031 -0.625 16.523438 0 13.359375 0 Z M 7.53125 -3.34375 L 13.125 -3.34375 C 16.976562 -3.34375 19.84375 -4.4375 21.71875 -6.625 C 23.601562 -8.820312 24.546875 -11.816406 24.546875 -15.609375 C 24.546875 -19.378906 23.625 -22.347656 21.78125 -24.515625 C 19.9375 -26.679688 17.191406 -27.765625 13.546875 -27.765625 L 7.53125 -27.765625 Z M 7.53125 -3.34375 "/></g></g></g><g fill="#737373" fill-opacity="1"><g transform="translate(861.028961, 212.215453)"><g/></g></g><g fill="#737373" fill-opacity="1"><g transform="translate(883.149481, 212.215453)"><g><path d="M 5.046875 0 L 1.09375 0 L 12.515625 -31.109375 L 16.40625 -31.109375 L 27.828125 0 L 23.875 0 L 20.75 -8.8125 L 8.171875 -8.8125 Z M 9.359375 -12.15625 L 19.5625 -12.15625 L 14.578125 -26.1875 L 14.34375 -26.1875 Z M 9.359375 -12.15625 "/></g></g></g><g fill="#737373" fill-opacity="1"><g transform="translate(922.148659, 212.215453)"><g><path d="M 3.765625 0 L 3.765625 -31.109375 L 7.53125 -31.109375 L 7.53125 -3.34375 L 21.984375 -3.34375 L 21.984375 0 Z M 3.765625 0 "/></g></g></g><g fill="#737373" fill-opacity="1"><g transform="translate(956.290668, 212.215453)"><g><path d="M 28.796875 -21.375 L 25.03125 -21.375 C 24.726562 -22.820312 24.144531 -24.035156 23.28125 -25.015625 C 22.414062 -25.992188 21.375 -26.734375 20.15625 -27.234375 C 18.945312 -27.742188 17.65625 -28 16.28125 -28 C 14.394531 -28 12.691406 -27.523438 11.171875 -26.578125 C 9.648438 -25.628906 8.441406 -24.226562 7.546875 -22.375 C 6.648438 -20.519531 6.203125 -18.242188 6.203125 -15.546875 C 6.203125 -12.859375 6.648438 -10.585938 7.546875 -8.734375 C 8.441406 -6.878906 9.648438 -5.472656 11.171875 -4.515625 C 12.691406 -3.566406 14.394531 -3.09375 16.28125 -3.09375 C 17.65625 -3.09375 18.945312 -3.34375 20.15625 -3.84375 C 21.375 -4.351562 22.414062 -5.097656 23.28125 -6.078125 C 24.144531 -7.066406 24.726562 -8.28125 25.03125 -9.71875 L 28.796875 -9.71875 C 28.410156 -7.59375 27.625 -5.769531 26.4375 -4.25 C 25.25 -2.738281 23.78125 -1.582031 22.03125 -0.78125 C 20.28125 0.0195312 18.363281 0.421875 16.28125 0.421875 C 13.625 0.421875 11.265625 -0.222656 9.203125 -1.515625 C 7.140625 -2.816406 5.515625 -4.660156 4.328125 -7.046875 C 3.140625 -9.429688 2.546875 -12.265625 2.546875 -15.546875 C 2.546875 -18.828125 3.140625 -21.660156 4.328125 -24.046875 C 5.515625 -26.441406 7.140625 -28.285156 9.203125 -29.578125 C 11.265625 -30.878906 13.625 -31.53125 16.28125 -31.53125 C 18.363281 -31.53125 20.28125 -31.125 22.03125 -30.3125 C 23.78125 -29.507812 25.25 -28.351562 26.4375 -26.84375 C 27.625 -25.332031 28.410156 -23.507812 28.796875 -21.375 Z M 28.796875 -21.375 "/></g></g></g><g fill="#737373" fill-opacity="1"><g transform="translate(997.475583, 212.215453)"><g><path d="M 3.765625 0 L 3.765625 -31.109375 L 7.53125 -31.109375 L 7.53125 -17.25 L 24.109375 -17.25 L 24.109375 -31.109375 L 27.875 -31.109375 L 27.875 0 L 24.109375 0 L 24.109375 -13.90625 L 7.53125 -13.90625 L 7.53125 0 Z M 3.765625 0 "/></g></g></g><g fill="#737373" fill-opacity="1"><g transform="translate(1039.206944, 212.215453)"><g><path d="M 3.765625 0 L 3.765625 -31.109375 L 22.53125 -31.109375 L 22.53125 -27.765625 L 7.53125 -27.765625 L 7.53125 -17.25 L 21.5625 -17.25 L 21.5625 -13.90625 L 7.53125 -13.90625 L 7.53125 -3.34375 L 22.78125 -3.34375 L 22.78125 0 Z M 3.765625 0 "/></g></g></g><g fill="#737373" fill-opacity="1"><g transform="translate(1074.866832, 212.215453)"><g><path d="M 3.765625 -31.109375 L 8.265625 -31.109375 L 18.828125 -5.28125 L 19.203125 -5.28125 L 29.765625 -31.109375 L 34.265625 -31.109375 L 34.265625 0 L 30.734375 0 L 30.734375 -23.625 L 30.4375 -23.625 L 20.71875 0 L 17.3125 0 L 7.59375 -23.625 L 7.296875 -23.625 L 7.296875 0 L 3.765625 0 Z M 3.765625 -31.109375 "/></g></g></g><g fill="#737373" fill-opacity="1"><g transform="translate(1123.94463, 212.215453)"><g><path d="M 1.09375 -31.109375 L 5.40625 -31.109375 L 14.03125 -16.578125 L 14.390625 -16.578125 L 23.015625 -31.109375 L 27.328125 -31.109375 L 16.09375 -12.8125 L 16.09375 0 L 12.328125 0 L 12.328125 -12.8125 Z M 1.09375 -31.109375 "/></g></g></g><path stroke-linecap="round" transform="matrix(0, 0.75, -0.75, 0, 511.249784, 40.14229)" fill="none" stroke-linejoin="miter" d="M 1.497781 1.499712 L 279.409267 1.499712 " stroke="#000000" stroke-width="3" stroke-opacity="1" stroke-miterlimit="4"/></svg>
